<svg width="48" height="48" viewBox="0 0 48 48" fill="none" xmlns="http://www.w3.org/2000/svg">
<g filter="url(#filter0_i_166_2271)">
<path d="M17.0167 31.125H30.9855V38.3571C30.9855 40.8868 28.9348 42.9375 26.4051 42.9375H21.5971C19.0674 42.9375 17.0167 40.8868 17.0167 38.3571V31.125Z" fill="#040F25"/>
</g>
<path d="M17.2511 31.3594H30.7511V38.3571C30.7511 40.7574 28.8053 42.7031 26.4051 42.7031H21.5971C19.1969 42.7031 17.2511 40.7574 17.2511 38.3571V31.3594Z" stroke="#121212" stroke-width="0.46875"/>
<g filter="url(#filter1_ii_166_2271)">
<path d="M2.01672 23.7908C2.01672 21.7059 3.7068 20.0159 5.79161 20.0159V33.339C3.7068 33.339 2.01672 31.6489 2.01672 29.5641V23.7908Z" fill="#0041CA"/>
</g>
<path d="M2.2511 23.7908C2.2511 21.9141 3.71113 20.3785 5.55723 20.2579V33.097C3.71113 32.9763 2.2511 31.4407 2.2511 29.5641V23.7908Z" stroke="#121212" stroke-width="0.46875"/>
<g filter="url(#filter2_ii_166_2271)">
<path d="M45.9831 23.7908C45.9831 21.7059 44.293 20.0159 42.2082 20.0159V33.339C44.293 33.339 45.9831 31.6489 45.9831 29.5641V23.7908Z" fill="#0041CA"/>
</g>
<path d="M45.7487 23.7908C45.7487 21.9141 44.2887 20.3785 42.4426 20.2579V33.097C44.2887 32.9763 45.7487 31.4407 45.7487 29.5641V23.7908Z" stroke="#121212" stroke-width="0.46875"/>
<g filter="url(#filter3_i_166_2271)">
<path d="M20.1716 6.39811C18.4175 6.30008 16.1759 8.48055 16.1759 8.48055L17.0026 9.59118C17.0026 9.59118 18.4406 8.12335 19.6205 8.06406C20.9673 7.99638 21.7868 8.68769 22.6518 9.73001C23.715 11.0113 23.6162 13.8949 23.6162 13.8949H25.2697C25.2697 13.8949 24.9941 10.7018 24.0296 9.1747C23.0356 7.60081 22.0203 6.50142 20.1716 6.39811Z" fill="#121212"/>
</g>
<path d="M20.1716 6.39811C18.4175 6.30008 16.1759 8.48055 16.1759 8.48055L17.0026 9.59118C17.0026 9.59118 18.4406 8.12335 19.6205 8.06406C20.9673 7.99638 21.7868 8.68769 22.6518 9.73001C23.715 11.0113 23.6162 13.8949 23.6162 13.8949H25.2697C25.2697 13.8949 24.9941 10.7018 24.0296 9.1747C23.0356 7.60081 22.0203 6.50142 20.1716 6.39811Z" stroke="#121212" stroke-width="0.46875"/>
<g filter="url(#filter4_i_166_2271)">
<circle cx="16.8516" cy="8.625" r="3.5625" fill="#121212"/>
</g>
<circle cx="16.8516" cy="8.625" r="3.32812" stroke="#121212" stroke-width="0.46875"/>
<ellipse cx="14.8462" cy="7.15314" rx="0.328125" ry="0.1875" transform="rotate(-47.1005 14.8462 7.15314)" fill="white" fill-opacity="0.6"/>
<g filter="url(#filter5_iiii_166_2271)">
<rect x="5.01672" y="13.1602" width="37.9688" height="26.25" rx="9.375" fill="#0041CA"/>
<rect x="5.2511" y="13.3945" width="37.5" height="25.7812" rx="9.14062" stroke="#121212" stroke-width="0.46875"/>
<g style="mix-blend-mode:soft-light">
<path d="M7.43102 19.8543C7.97972 17.5498 13.5764 13.27 13.5764 13.27C9.73555 12.9407 6.44337 16.5621 5.56546 19.3056C4.90733 21.3623 5.20318 29.0697 5.53239 32.8009C7.43102 37.3946 10.8536 38.9884 12.9386 38.9884C12.9386 38.9884 8.08946 36.5346 7.43102 33.4619C6.77259 30.3892 6.88233 22.1588 7.43102 19.8543Z" fill="white" fill-opacity="0.4"/>
</g>
<g style="mix-blend-mode:soft-light">
<path d="M38.5968 36.0957C34.9057 39.2066 25.2087 39.6073 25.2087 39.6073H33.6586C40.2429 39.6073 41.6695 35.6567 42.328 34.1204C43.3156 32.584 42.9565 22.488 42.7669 20.403C42.5973 18.5374 41.0111 16.1118 40.0234 15.5745C40.0234 15.5745 42.288 32.9847 38.5968 36.0957Z" fill="#121212" fill-opacity="0.2"/>
</g>
<path d="M9.22921 17.4879C9.19543 17.4526 9.16843 17.4106 9.15769 17.3629C9.03016 16.7967 9.63358 16.1005 10.3867 16.3024C10.4464 16.3184 10.497 16.3571 10.5342 16.4064C10.6353 16.5407 10.6142 16.7305 10.4861 16.8393L9.69394 17.5121C9.55706 17.6284 9.35327 17.6178 9.22921 17.4879Z" fill="white" fill-opacity="0.6"/>
</g>
<g filter="url(#filter6_iii_166_2271)">
<path d="M24.0469 31.4332C22.4862 31.4332 20.7963 34.6875 16.9382 34.6875C12.3148 34.6875 9.1875 30.9099 9.1875 26.25C9.1875 21.5901 12.2913 17.8125 17.559 17.8125C20.1756 17.8125 21.6196 17.8125 24.0469 17.8125C26.2793 17.8125 27.9182 17.8125 30.5348 17.8125C35.8025 17.8125 38.9062 21.5901 38.9062 26.25C38.9062 30.9099 35.779 34.6875 31.1555 34.6875C27.2974 34.6875 25.6075 31.4332 24.0469 31.4332Z" fill="#121212"/>
</g>
<mask id="mask0_166_2271" style="mask-type:alpha" maskUnits="userSpaceOnUse" x="9" y="17" width="30" height="18">
<path d="M24.0469 31.4332C22.4862 31.4332 20.7963 34.6875 16.9382 34.6875C12.3148 34.6875 9.1875 30.9099 9.1875 26.25C9.1875 21.5901 12.2913 17.8125 17.559 17.8125C20.1756 17.8125 21.6196 17.8125 24.0469 17.8125C26.2793 17.8125 27.9182 17.8125 30.5348 17.8125C35.8025 17.8125 38.9062 21.5901 38.9062 26.25C38.9062 30.9099 35.779 34.6875 31.1555 34.6875C27.2974 34.6875 25.6075 31.4332 24.0469 31.4332Z" fill="#121212"/>
</mask>
<g mask="url(#mask0_166_2271)">
<path d="M19.384 17.8125H27.8438L22.241 34.6875H13.7812L19.384 17.8125Z" fill="url(#paint0_linear_166_2271)"/>
<path d="M30.0561 17.8125H34.3125L28.7251 34.6875H24.4688L30.0561 17.8125Z" fill="url(#paint1_linear_166_2271)"/>
</g>
<path d="M30.6565 29.9432L27.7649 29.9749L31.5652 25.9287L27.6058 21.9375H30.4974L34.4568 25.897L30.6565 29.9432Z" fill="white"/>
<path d="M17.4373 29.9432L20.3289 29.9749L16.5285 25.9287L20.4879 21.9375H17.5964L13.637 25.897L17.4373 29.9432Z" fill="white"/>
<defs>
<filter id="filter0_i_166_2271" x="17.0167" y="31.125" width="13.9688" height="12.1875" filterUnits="userSpaceOnUse" color-interpolation-filters="sRGB">
<feFlood flood-opacity="0" result="BackgroundImageFix"/>
<feBlend mode="normal" in="SourceGraphic" in2="BackgroundImageFix" result="shape"/>
<feColorMatrix in="SourceAlpha" type="matrix" values="0 0 0 0 0 0 0 0 0 0 0 0 0 0 0 0 0 0 127 0" result="hardAlpha"/>
<feOffset dy="9.28125"/>
<feGaussianBlur stdDeviation="0.1875"/>
<feComposite in2="hardAlpha" operator="arithmetic" k2="-1" k3="1"/>
<feColorMatrix type="matrix" values="0 0 0 0 0 0 0 0 0 0 0 0 0 0 0 0 0 0 0.25 0"/>
<feBlend mode="normal" in2="shape" result="effect1_innerShadow_166_2271"/>
</filter>
<filter id="filter1_ii_166_2271" x="2.01672" y="20.0159" width="4.14987" height="14.389" filterUnits="userSpaceOnUse" color-interpolation-filters="sRGB">
<feFlood flood-opacity="0" result="BackgroundImageFix"/>
<feBlend mode="normal" in="SourceGraphic" in2="BackgroundImageFix" result="shape"/>
<feColorMatrix in="SourceAlpha" type="matrix" values="0 0 0 0 0 0 0 0 0 0 0 0 0 0 0 0 0 0 127 0" result="hardAlpha"/>
<feOffset dx="0.28125" dy="1.21875"/>
<feGaussianBlur stdDeviation="0.532925"/>
<feComposite in2="hardAlpha" operator="arithmetic" k2="-1" k3="1"/>
<feColorMatrix type="matrix" values="0 0 0 0 1 0 0 0 0 1 0 0 0 0 1 0 0 0 0.25 0"/>
<feBlend mode="normal" in2="shape" result="effect1_innerShadow_166_2271"/>
<feColorMatrix in="SourceAlpha" type="matrix" values="0 0 0 0 0 0 0 0 0 0 0 0 0 0 0 0 0 0 127 0" result="hardAlpha"/>
<feOffset dx="0.84375" dy="2.53125"/>
<feGaussianBlur stdDeviation="0.1875"/>
<feComposite in2="hardAlpha" operator="arithmetic" k2="-1" k3="1"/>
<feColorMatrix type="matrix" values="0 0 0 0 1 0 0 0 0 1 0 0 0 0 1 0 0 0 0.04 0"/>
<feBlend mode="normal" in2="effect1_innerShadow_166_2271" result="effect2_innerShadow_166_2271"/>
</filter>
<filter id="filter2_ii_166_2271" x="41.5421" y="19.1721" width="4.44103" height="14.1669" filterUnits="userSpaceOnUse" color-interpolation-filters="sRGB">
<feFlood flood-opacity="0" result="BackgroundImageFix"/>
<feBlend mode="normal" in="SourceGraphic" in2="BackgroundImageFix" result="shape"/>
<feColorMatrix in="SourceAlpha" type="matrix" values="0 0 0 0 0 0 0 0 0 0 0 0 0 0 0 0 0 0 127 0" result="hardAlpha"/>
<feOffset dx="-0.666156" dy="-1.99847"/>
<feGaussianBlur stdDeviation="0.421899"/>
<feComposite in2="hardAlpha" operator="arithmetic" k2="-1" k3="1"/>
<feColorMatrix type="matrix" values="0 0 0 0 0 0 0 0 0 0 0 0 0 0 0 0 0 0 0.25 0"/>
<feBlend mode="normal" in2="shape" result="effect1_innerShadow_166_2271"/>
<feColorMatrix in="SourceAlpha" type="matrix" values="0 0 0 0 0 0 0 0 0 0 0 0 0 0 0 0 0 0 127 0" result="hardAlpha"/>
<feOffset dx="-1.59375" dy="-2.71875"/>
<feGaussianBlur stdDeviation="0.1875"/>
<feComposite in2="hardAlpha" operator="arithmetic" k2="-1" k3="1"/>
<feColorMatrix type="matrix" values="0 0 0 0 0 0 0 0 0 0 0 0 0 0 0 0 0 0 0.05 0"/>
<feBlend mode="normal" in2="effect1_innerShadow_166_2271" result="effect2_innerShadow_166_2271"/>
</filter>
<filter id="filter3_i_166_2271" x="15.8653" y="6.16052" width="10.104" height="8.41288" filterUnits="userSpaceOnUse" color-interpolation-filters="sRGB">
<feFlood flood-opacity="0" result="BackgroundImageFix"/>
<feBlend mode="normal" in="SourceGraphic" in2="BackgroundImageFix" result="shape"/>
<feColorMatrix in="SourceAlpha" type="matrix" values="0 0 0 0 0 0 0 0 0 0 0 0 0 0 0 0 0 0 127 0" result="hardAlpha"/>
<feOffset dx="0.666193" dy="2.66477"/>
<feGaussianBlur stdDeviation="0.222064"/>
<feComposite in2="hardAlpha" operator="arithmetic" k2="-1" k3="1"/>
<feColorMatrix type="matrix" values="0 0 0 0 1 0 0 0 0 1 0 0 0 0 1 0 0 0 0.02 0"/>
<feBlend mode="normal" in2="shape" result="effect1_innerShadow_166_2271"/>
</filter>
<filter id="filter4_i_166_2271" x="13.2891" y="5.0625" width="7.66334" height="7.56913" filterUnits="userSpaceOnUse" color-interpolation-filters="sRGB">
<feFlood flood-opacity="0" result="BackgroundImageFix"/>
<feBlend mode="normal" in="SourceGraphic" in2="BackgroundImageFix" result="shape"/>
<feColorMatrix in="SourceAlpha" type="matrix" values="0 0 0 0 0 0 0 0 0 0 0 0 0 0 0 0 0 0 127 0" result="hardAlpha"/>
<feOffset dx="0.666193" dy="0.444129"/>
<feGaussianBlur stdDeviation="0.269169"/>
<feComposite in2="hardAlpha" operator="arithmetic" k2="-1" k3="1"/>
<feColorMatrix type="matrix" values="0 0 0 0 1 0 0 0 0 1 0 0 0 0 1 0 0 0 0.1 0"/>
<feBlend mode="normal" in2="shape" result="effect1_innerShadow_166_2271"/>
</filter>
<filter id="filter5_iiii_166_2271" x="4.13881" y="12.2822" width="39.7285" height="28.203" filterUnits="userSpaceOnUse" color-interpolation-filters="sRGB">
<feFlood flood-opacity="0" result="BackgroundImageFix"/>
<feBlend mode="normal" in="SourceGraphic" in2="BackgroundImageFix" result="shape"/>
<feColorMatrix in="SourceAlpha" type="matrix" values="0 0 0 0 0 0 0 0 0 0 0 0 0 0 0 0 0 0 127 0" result="hardAlpha"/>
<feOffset dx="1.53635" dy="1.75582"/>
<feGaussianBlur stdDeviation="0.438956"/>
<feComposite in2="hardAlpha" operator="arithmetic" k2="-1" k3="1"/>
<feColorMatrix type="matrix" values="0 0 0 0 1 0 0 0 0 1 0 0 0 0 1 0 0 0 0.04 0"/>
<feBlend mode="normal" in2="shape" result="effect1_innerShadow_166_2271"/>
<feColorMatrix in="SourceAlpha" type="matrix" values="0 0 0 0 0 0 0 0 0 0 0 0 0 0 0 0 0 0 127 0" result="hardAlpha"/>
<feOffset dx="-1.75582" dy="-1.53635"/>
<feGaussianBlur stdDeviation="0.438956"/>
<feComposite in2="hardAlpha" operator="arithmetic" k2="-1" k3="1"/>
<feColorMatrix type="matrix" values="0 0 0 0 0 0 0 0 0 0 0 0 0 0 0 0 0 0 0.25 0"/>
<feBlend mode="normal" in2="effect1_innerShadow_166_2271" result="effect2_innerShadow_166_2271"/>
<feColorMatrix in="SourceAlpha" type="matrix" values="0 0 0 0 0 0 0 0 0 0 0 0 0 0 0 0 0 0 127 0" result="hardAlpha"/>
<feOffset dx="-3.84375" dy="-2.0625"/>
<feGaussianBlur stdDeviation="0.1875"/>
<feComposite in2="hardAlpha" operator="arithmetic" k2="-1" k3="1"/>
<feColorMatrix type="matrix" values="0 0 0 0 0 0 0 0 0 0 0 0 0 0 0 0 0 0 0.15 0"/>
<feBlend mode="normal" in2="effect2_innerShadow_166_2271" result="effect3_innerShadow_166_2271"/>
<feColorMatrix in="SourceAlpha" type="matrix" values="0 0 0 0 0 0 0 0 0 0 0 0 0 0 0 0 0 0 127 0" result="hardAlpha"/>
<feOffset dx="3.75" dy="1.3125"/>
<feGaussianBlur stdDeviation="0.1875"/>
<feComposite in2="hardAlpha" operator="arithmetic" k2="-1" k3="1"/>
<feColorMatrix type="matrix" values="0 0 0 0 1 0 0 0 0 1 0 0 0 0 1 0 0 0 0.05 0"/>
<feBlend mode="normal" in2="effect3_innerShadow_166_2271" result="effect4_innerShadow_166_2271"/>
</filter>
<filter id="filter6_iii_166_2271" x="9.1875" y="17.4375" width="29.7188" height="17.9184" filterUnits="userSpaceOnUse" color-interpolation-filters="sRGB">
<feFlood flood-opacity="0" result="BackgroundImageFix"/>
<feBlend mode="normal" in="SourceGraphic" in2="BackgroundImageFix" result="shape"/>
<feColorMatrix in="SourceAlpha" type="matrix" values="0 0 0 0 0 0 0 0 0 0 0 0 0 0 0 0 0 0 127 0" result="hardAlpha"/>
<feOffset dy="1.59375"/>
<feGaussianBlur stdDeviation="0.334217"/>
<feComposite in2="hardAlpha" operator="arithmetic" k2="-1" k3="1"/>
<feColorMatrix type="matrix" values="0 0 0 0 0 0 0 0 0 0 0 0 0 0 0 0 0 0 0.4 0"/>
<feBlend mode="normal" in2="shape" result="effect1_innerShadow_166_2271"/>
<feColorMatrix in="SourceAlpha" type="matrix" values="0 0 0 0 0 0 0 0 0 0 0 0 0 0 0 0 0 0 127 0" result="hardAlpha"/>
<feOffset dy="2.90625"/>
<feGaussianBlur stdDeviation="0.1875"/>
<feComposite in2="hardAlpha" operator="arithmetic" k2="-1" k3="1"/>
<feColorMatrix type="matrix" values="0 0 0 0 0 0 0 0 0 0 0 0 0 0 0 0 0 0 0.1 0"/>
<feBlend mode="normal" in2="effect1_innerShadow_166_2271" result="effect2_innerShadow_166_2271"/>
<feColorMatrix in="SourceAlpha" type="matrix" values="0 0 0 0 0 0 0 0 0 0 0 0 0 0 0 0 0 0 127 0" result="hardAlpha"/>
<feOffset dy="-0.5625"/>
<feGaussianBlur stdDeviation="0.1875"/>
<feComposite in2="hardAlpha" operator="arithmetic" k2="-1" k3="1"/>
<feColorMatrix type="matrix" values="0 0 0 0 1 0 0 0 0 1 0 0 0 0 1 0 0 0 0.05 0"/>
<feBlend mode="normal" in2="effect2_innerShadow_166_2271" result="effect3_innerShadow_166_2271"/>
</filter>
<linearGradient id="paint0_linear_166_2271" x1="20.8125" y1="17.8125" x2="20.8125" y2="34.6875" gradientUnits="userSpaceOnUse">
<stop stop-color="white" stop-opacity="0.04"/>
<stop offset="1" stop-color="white" stop-opacity="0"/>
</linearGradient>
<linearGradient id="paint1_linear_166_2271" x1="29.3906" y1="17.8125" x2="29.3906" y2="34.6875" gradientUnits="userSpaceOnUse">
<stop stop-color="white" stop-opacity="0.04"/>
<stop offset="1" stop-color="white" stop-opacity="0"/>
</linearGradient>
</defs>
</svg>
