<svg width="35" height="35" viewBox="0 0 35 35" fill="none" xmlns="http://www.w3.org/2000/svg">
<path d="M13.1918 6.65624L13.085 4.65909M8.05788 9.01449L6.57021 7.67777M8.62287 19.5852L7.28615 21.0729M18.6286 8.4495L19.9653 6.96182M6.2603 14.3705L4.26315 14.4773M23.2344 23.0631L20.2461 29.4015C19.9047 30.1256 19.734 30.4877 19.5108 30.5889C19.3171 30.6767 19.093 30.6668 18.9078 30.5623C18.6944 30.4418 18.5563 30.066 18.2801 29.3146L12.8762 14.6114C12.6506 13.9976 12.5378 13.6907 12.6039 13.4758C12.6614 13.2886 12.7983 13.1362 12.9783 13.059C13.185 12.9704 13.5021 13.0499 14.1365 13.2087L29.3319 17.0147C30.1085 17.2092 30.4968 17.3065 30.6394 17.5058C30.7631 17.6789 30.7968 17.9006 30.7301 18.1025C30.6533 18.3353 30.3115 18.5436 29.6279 18.9602L23.6441 22.6071C23.5425 22.669 23.4917 22.6999 23.4479 22.7386C23.409 22.7729 23.3742 22.8116 23.3442 22.8539C23.3105 22.9017 23.2851 22.9555 23.2344 23.0631Z" stroke="black" stroke-width="2" stroke-linecap="round" stroke-linejoin="round"/>
</svg>
