<svg width="20" height="20" viewBox="0 0 20 20" fill="none" xmlns="http://www.w3.org/2000/svg">
<path d="M9.99996 16.6667H4.33329C3.39987 16.6667 2.93316 16.6667 2.57664 16.4851C2.26304 16.3253 2.00807 16.0703 1.84828 15.7567C1.66663 15.4002 1.66663 14.9335 1.66663 14V6.00004C1.66663 5.06662 1.66663 4.59991 1.84828 4.24339C2.00807 3.92979 2.26304 3.67482 2.57664 3.51503C2.93316 3.33337 3.39987 3.33337 4.33329 3.33337H4.66663C6.53347 3.33337 7.46689 3.33337 8.17993 3.69669C8.80713 4.01626 9.31707 4.5262 9.63665 5.15341C9.99996 5.86644 9.99996 6.79987 9.99996 8.66671M9.99996 16.6667V8.66671M9.99996 16.6667H15.6666C16.6 16.6667 17.0668 16.6667 17.4233 16.4851C17.7369 16.3253 17.9918 16.0703 18.1516 15.7567C18.3333 15.4002 18.3333 14.9335 18.3333 14V6.00004C18.3333 5.06662 18.3333 4.59991 18.1516 4.24339C17.9918 3.92979 17.7369 3.67482 17.4233 3.51503C17.0668 3.33337 16.6 3.33337 15.6666 3.33337H15.3333C13.4665 3.33337 12.533 3.33337 11.82 3.69669C11.1928 4.01626 10.6828 4.5262 10.3633 5.15341C9.99996 5.86644 9.99996 6.79987 9.99996 8.66671" stroke="#323134" stroke-width="1.66667" stroke-linecap="round" stroke-linejoin="round"/>
</svg>
